<svg width="98" height="98" viewBox="0 0 98 98" fill="none" xmlns="http://www.w3.org/2000/svg">
<g filter="url(#filter0_d_416_100)">
<path d="M45.9625 59.9625C46.7875 60.7875 47.8195 61.1805 49.0585 61.1415C50.2945 61.1055 51.325 60.675 52.15 59.85C52.975 59.025 53.3875 57.975 53.3875 56.7C53.3875 55.425 52.975 54.375 52.15 53.55L48.1 49.5H62.6125C63.8875 49.5 64.9375 49.068 65.7625 48.204C66.5875 47.343 67 46.275 67 45C67 43.725 66.5695 42.6555 65.7085 41.7915C64.8445 40.9305 63.775 40.5 62.5 40.5H48.1L52.2625 36.3375C53.0875 35.5125 53.482 34.4805 53.446 33.2415C53.407 32.0055 52.975 30.975 52.15 30.15C51.325 29.325 50.275 28.9125 49 28.9125C47.725 28.9125 46.675 29.325 45.85 30.15L34.15 41.85C33.25 42.75 32.8 43.8 32.8 45C32.8 46.2 33.25 47.25 34.15 48.15L45.9625 59.9625ZM49 90C42.775 90 36.925 88.818 31.45 86.454C25.975 84.093 21.2125 80.8875 17.1625 76.8375C13.1125 72.7875 9.907 68.025 7.546 62.55C5.182 57.075 4 51.225 4 45C4 38.775 5.182 32.925 7.546 27.45C9.907 21.975 13.1125 17.2125 17.1625 13.1625C21.2125 9.1125 25.975 5.9055 31.45 3.5415C36.925 1.1805 42.775 0 49 0C55.225 0 61.075 1.1805 66.55 3.5415C72.025 5.9055 76.7875 9.1125 80.8375 13.1625C84.8875 17.2125 88.093 21.975 90.454 27.45C92.818 32.925 94 38.775 94 45C94 51.225 92.818 57.075 90.454 62.55C88.093 68.025 84.8875 72.7875 80.8375 76.8375C76.7875 80.8875 72.025 84.093 66.55 86.454C61.075 88.818 55.225 90 49 90ZM49 81C58.975 81 67.4695 77.4945 74.4835 70.4835C81.4945 63.4695 85 54.975 85 45C85 35.025 81.4945 26.5305 74.4835 19.5165C67.4695 12.5055 58.975 9 49 9C39.025 9 30.532 12.5055 23.521 19.5165C16.507 26.5305 13 35.025 13 45C13 54.975 16.507 63.4695 23.521 70.4835C30.532 77.4945 39.025 81 49 81Z" fill="white"/>
</g>
<defs>
<filter id="filter0_d_416_100" x="0" y="0" width="98" height="98" filterUnits="userSpaceOnUse" color-interpolation-filters="sRGB">
<feFlood flood-opacity="0" result="BackgroundImageFix"/>
<feColorMatrix in="SourceAlpha" type="matrix" values="0 0 0 0 0 0 0 0 0 0 0 0 0 0 0 0 0 0 127 0" result="hardAlpha"/>
<feOffset dy="4"/>
<feGaussianBlur stdDeviation="2"/>
<feComposite in2="hardAlpha" operator="out"/>
<feColorMatrix type="matrix" values="0 0 0 0 0.351482 0 0 0 0 0.568517 0 0 0 0 0.59198 0 0 0 1 0"/>
<feBlend mode="normal" in2="BackgroundImageFix" result="effect1_dropShadow_416_100"/>
<feBlend mode="normal" in="SourceGraphic" in2="effect1_dropShadow_416_100" result="shape"/>
</filter>
</defs>
</svg>
